<svg xmlns="http://www.w3.org/2000/svg" viewBox="0 0 1000 1000"><path d="M286.2 938.1h426.4V990H286.2zm426.4-24.9H286.2v-90.1c60 44 133.9 70.1 213.8 70.1 79.4 0 152.9-25.8 212.6-69.3v89.3zM627.6 75c0-35.9 29.2-65 65-65 35.9 0 65 29.2 65 65v350l-130-125.7V75zm-89.9 174.2c24.4 0 46.6 13.8 57.7 35.3-2.6.3-5.2 1.3-7.3 3.3-55.6 55.6-55.6 146 0 201.6l13 13c-6.5 29.6-33.1 51-63.4 51-35.9 0-65.1-29.2-65.1-65V314.3c.1-35.9 29.2-65.1 65.1-65.1zm114.7 304.6c-.5-.1-1-.3-1.6-.3h-51.6c9.2-8.7 16.9-19.2 21.8-31.3l31.5 31.6h-.1zM382.8 249.2c35.9 0 65 29.2 65 65v124.2c0 35.9-29.2 65-65 65-35.9 0-65-29.2-65-65V314.2c0-35.8 29.1-65 65-65z" fill="#fefefe"/><path d="M227.9 123.1c35.9 0 65 29.2 65 65v250.3c0 49.6 40.3 89.9 89.9 89.9 25.9 0 49.3-11 65.7-28.6 2.6 21.1 12.7 39.9 27.3 53.8h-202c-6.9 0-12.4 5.5-12.4 12.4 0 6.8 5.5 12.4 12.4 12.4h329.9l-109.9 62.3c-5.9 3.4-8 11-4.7 16.9 2.3 4 6.5 6.3 10.8 6.3 2.1 0 4.2-.5 6.1-1.6l150.8-85.6c.5-.3.8-.7 1.2-1 .7-.5 1.4-1 2-1.7.5-.6.9-1.2 1.3-1.9s.8-1.3 1.1-2.1c.3-.8.4-1.7.5-2.5 0-.5.3-1 .3-1.5 0-.3-.1-.4-.1-.7 0-.3.1-.5 0-.8l53.1 53.1c2.4 2.4 5.6 3.6 8.8 3.6 3.2 0 6.4-1.2 8.8-3.6 4.9-4.9 4.9-12.7 0-17.6l-128-128c-45.1-45.1-45.8-117.8-2.3-163.9.1.3.1.5.2.8.1.2.1.5.2.8.1.3.4.5.5.7.6 1.2 1.3 2.3 2.3 3.3 0 0 0 .1.1.1l230.5 222.7c-1.5 99.9-46.7 189.3-117.2 250.1-1.9.9-3.5 2.4-4.7 4.1-58.4 48.5-133.4 77.8-215.1 77.8-185.9 0-337.1-151.3-337.1-337.1V188.1c-.3-35.8 28.8-65 64.7-65z" fill="#fefefe"/></svg>