<svg version="1" xmlns="http://www.w3.org/2000/svg" width="933.333" height="933.333"
     viewBox="0 0 700.000000 700.000000">
    <path d="M476.7 4.2c-16.3 2.1-31.2 14.9-38.8 33.3l-2.6 6-.2 83.5-.2 83.6 8.8 8.6c4.8 4.7 12.2 11.9 16.3 15.8 4.1 4 18.1 17.5 31 30 34 32.9 41.4 40 42.1 40 .3 0 .5-59.1.5-131.3-.2-124.7-.3-131.4-2-136.2-2.3-6.3-7-13.6-13-20.2-9-10-25.9-15.3-41.9-13.1zm17.8 8.4c16 4.1 28.4 17.2 30.4 32 .6 4.3.8 240.9.2 242.2 0 .2-6-5.4-13.2-12.5-7.2-7-15.2-14.8-17.8-17.3-2.6-2.5-15.2-14.6-28-27l-23.3-22.5.6-79c.3-43.5.8-81.3 1.2-84 2.8-21.3 28.1-37.5 49.9-31.9zM151.6 83.2c-14.4 3.1-25.7 10.7-33.2 22.5-5 7.6-6.4 12.7-7.1 24.3-.8 14.1-.8 241.1 0 257.5 2 39.8 17.2 84.4 40.5 118.5 29.1 42.5 70.8 74.9 117.9 91.4 9.5 3.4 19 6.3 22.9 7 1.1.2 3.7.9 5.9 1.4 2.2.6 6 1.4 8.5 1.7 2.4.4 4.7.8 5 1 .3.2 3.3.6 6.5 1 3.3.4 7.8.9 10 1.1 9.9 1.2 44.6.4 53.5-1.2 1.4-.2 5.4-.9 9-1.4 10.3-1.7 31.9-7.6 43.4-11.9 24.1-9.1 49.5-23.8 68.1-39.4 10.8-9.2 31.7-30.9 39-40.8 24-32.3 41.5-74.4 46-110.8.4-3 .9-6.3 1.1-7.5.2-1.2.6-7 .9-12.9l.4-10.9-5.8-5.6c-6.8-6.6-47.1-45.6-58.1-56.2-65.7-63.2-98.3-95.8-100.4-100.3l-1.8-3.8-2 2.3c-5.1 5.8-12.9 17.1-16.1 23.4-11.1 21.7-12.1 48.7-2.7 71.3 6 14.5 8.2 17 49.5 58.9 42.3 42.9 54.6 55.5 57.2 58.9 2.4 3.1 2.5 3.4.9 5.8-.9 1.4-2.1 2.5-2.6 2.5-1.5 0-12.1-10.1-44.5-42.2l-29.9-29.6-3.9 7.1c-4.5 8.3-6.6 11.2-13.7 19l-5.2 5.7 15.8.1c22.3.1 30.9.5 32.3 1.3.6.4 1 2.2.8 3.9-.3 2.9-1.7 3.8-21.3 15-11.5 6.5-23.1 13.1-25.9 14.6-2.7 1.5-15.4 8.7-28.1 15.9-12.7 7.1-25.5 14.2-28.4 15.7-6.3 3.2-10 2.8-10-1 0-3.3 4.3-6 44.5-28.9 17.1-9.7 32.1-18.3 33.5-19.1 1.4-.9 4.4-2.6 6.8-3.7 2.3-1.2 4.2-2.5 4.2-2.8 0-.3-38.5-.7-85.5-.9-133.3-.4-158.6-.8-161.7-2.7-1.2-.8-1-4.2.3-5 2.6-1.5 29.2-2.2 99.2-2.5 28.5-.2 52-.6 52.3-1 .2-.4-.2-1.3-.9-2.1-11.3-11.9-17.3-23.1-21-39.2l-1.3-5.8-6.6 5.5c-17.6 15-35.7 20.2-55 15.8-11.3-2.6-24.6-10.8-32.1-20-5.5-6.7-11.3-18.8-12.1-25.2-.4-3-.9-28.6-1.2-56.9-.2-28.3-.6-70.5-.8-93.7-.3-23.2-.8-44.3-1.1-47-1.7-11.6-13.7-27.2-25.5-33.1-8.9-4.5-22.4-6.7-30.4-5zm20.7 9.4c6 2 15.4 8.3 18.9 12.7 1.5 1.9 4.2 6.2 5.9 9.7l3.3 6.2.2 45.2c.4 69.9 1.3 146.8 1.8 149.6.3 1.4.7 4.5 1 7 .6 4.7 7.4 19.3 10.8 23.2 1.1 1.3 3 3.4 4.2 4.8 4.1 4.7 12.1 11.2 18.1 14.5 8.5 4.8 18.2 7.2 29.6 7.4 15.4.3 26.6-2.8 39.8-11.2l5.5-3.5 2.1 5.2c1.2 2.9 4 8.7 6.3 12.9l4.1 7.7h-51.2c-28.2 0-59.2.2-69 .3l-17.8.3-3 3c-4.5 4.5-4.3 13.1.4 17.8 3 3.1 4 3.1 149 3.7 40 .2 72.7.6 72.7.9 0 .3-5.3 3.4-11.7 7-6.5 3.6-12.5 6.9-13.5 7.5-.9.5-5.2 3-9.5 5.4-20 11.3-29.4 17.4-30.8 20.2-4.3 8.2 1.2 17.9 10.1 17.9 2.7 0 13.1-5 26.8-12.9 4.9-2.8 9-5.1 9.2-5.1.1 0 3.4-1.8 7.3-4 3.8-2.2 8.6-4.9 10.7-6 2-1.2 11.4-6.5 20.8-11.9 9.4-5.5 18.7-10.8 20.6-11.9 13.5-7.6 18.7-10.7 20-11.8 1.3-1.1 3.8 1 16.5 13.5 16.6 16.2 21 19.9 24.6 20.4 6.2 1 13-4.7 13.5-11.2.4-6.2 1.6-4.8-55.1-62.4-48.2-48.9-49.8-50.7-55.3-64.7-3.5-8.9-4.4-13.9-4.7-24.2-.5-17.1 3.3-31.3 11.9-45.3 5-8 4.9-7.9 9.2-4 2.8 2.5 38.2 36.3 50.4 48.1 7.4 7.2 15.8 15.3 18.5 17.9 4.2 3.9 39.6 38.4 68.2 66.4 4 3.9 10 10.1 13.4 13.7l6 6.8-.5 8c-.7 9.9-4 30.2-6.7 41.1-2 8-8.3 27.4-9.9 30.4-.5.9-2.4 5-4.2 9.1-20.7 47.1-62.7 90-110.3 112.6-18.8 8.9-43.7 17.1-57.5 19-2.5.3-4.7.8-5 .9-.3.2-3.3.6-6.5 1-3.3.4-7.3.9-9 1.2-7.8 1.3-46.9.4-55.7-1.3-1.5-.3-4-.7-5.6-.9-8.3-1.1-36.6-8.8-43.7-12-1.6-.8-5.9-2.6-9.5-4-14.7-6.1-38.2-20-50.8-30.2-3.1-2.6-6.3-5.2-7.1-5.8-5.6-4.2-28-27.9-34.1-36-18-24-31.4-51.3-39.2-80-5.5-20-6.1-23.5-7.4-39-.8-9.7-1.1-247.4-.4-261.5.7-13.9 3.1-20.1 11-28.4 11.1-11.7 27-15.9 42.3-11zM447 383.7c0 .3-3.8.3-8.5.2-5.5-.2-8.5-.7-8.5-1.5 0-.6 1.4-3 3-5.3l3.1-4.2 5.4 5.2c3 2.9 5.5 5.4 5.5 5.6z"/>
    <path d="M256.5 172.2c-7.2 1.5-16.1 6.7-22.9 13.4-8 7.9-12.5 16.6-13.6 26.1-1 8.9-1 94.9 0 103.2 1.9 15.3 14.5 31.3 29.2 37.2 7.3 2.9 10 3.3 20.3 3.2 15.7-.1 26.8-5.8 37.8-19.4 4.4-5.5 8.2-14.6 8.8-20.9.2-2.5.4-27.2.4-55 0-46.4-.1-50.9-1.8-55.8-3.6-10.3-13.8-22.2-23.4-27.4-9.6-5.2-23.2-7-34.8-4.6zm28.5 10.2c6.9 3.3 12.9 8.6 17.4 15.5 6.7 10 6.8 10.9 6.9 64 0 26.2-.4 49.6-.8 52-4.4 26.1-34.1 41.5-58 30.1-11.6-5.6-21.5-18.4-23.1-30-1.2-9.6-1.2-89.3.1-98.5 1.9-13.9 7.3-22.9 18-30 7.6-5 14.1-6.6 25-6.1 7.1.3 10.2 1 14.5 3zM364.5 172.4c-8.3 2-14.6 5.7-22.1 13.1-8.5 8.4-13.3 17.5-14.4 27.5-.4 3.6-.7 36.2-.6 72.5.2 63.5.3 66.2 2.2 71.7 5.6 15.5 18.4 27.3 34.9 32.3 5.9 1.7 20.7 1.2 27-1 14.9-5.1 27-17.5 32.1-32.7l1.6-4.8-8.2-8.9c-14-15.3-18.7-22.4-24.5-37.7-4.8-12.6-6.8-30.4-5-45.4 2.6-21.4 18.1-49.7 30.7-56.1l3.8-1.9-1.9-3.8c-3.2-6.2-12.8-15.9-19.4-19.6-10.9-6.1-24.1-8-36.2-5.2zm28.9 10.1c3.2 1.5 8.5 5.3 11.7 8.4l6 5.6-3.3 3.6c-9 9.8-15.7 20.2-21 32.9-6.5 15.3-7.1 18.4-7 39.5 0 17.8.2 19.5 2.7 27.5 3 9.4 9.9 23.8 14.8 30.9 1.7 2.5 6 7.9 9.6 12.1 10.2 11.7 9.6 10.1 6.7 16.2-3.4 7.2-12.8 16.6-20.1 20.2-5.4 2.6-6.9 2.9-16 2.8-5.6 0-11.9-.5-14.1-1.1-9.6-2.7-21.2-13.9-25.5-24.8l-2.4-5.8v-67c0-36.9.3-69.3.7-72 1-6.8 4.1-12.8 9.6-18.8 9.5-10.1 18.8-13.9 32.7-13.4 7.3.3 10.1.9 14.9 3.2zM196.7 572.6c-.2 1.4-.5 17.8-.6 36.5l-.2 33.9h307.2l-.2-36.4c-.2-25.7-.6-36.3-1.3-35.9-.6.4-7.4 4.5-15.1 9.3-28.7 17.9-60.2 31.2-84 35.4-1.6.3-4.1.8-5.5 1.1-1.4.3-4.5.8-7 1.1-2.5.3-4.7.8-5 .9-1.6 1-20.6 2-36 1.9-19.5 0-30.2-.8-40-2.9-1.4-.3-4.3-.8-6.5-1.1-10.6-1.6-34.5-8.8-49-14.9-9.4-4-26.9-13.3-40-21.4-7.7-4.8-14.5-9-15.1-9.4-.7-.4-1.4.3-1.7 1.9zM495 609.5V635H203.9l.2-25c.1-15.7.5-25 1.1-25 .5 0 5.1 2.6 10.1 5.7 24.2 14.9 62.4 29.7 87.7 33.8 1.9.3 6 1 9 1.5 14.9 2.5 44.1 3.3 62.4 1.7 8.8-.8 30.3-4.2 34.1-5.4 1.1-.4 2.5-.8 3.1-.9.7-.1 5.4-1.4 10.5-2.9 20.1-5.8 48.7-18.7 64.9-29.4 4.1-2.7 7.6-5 7.8-5 .1-.1.2 11.4.2 25.4zM196.1 673.7c.2 11.5.4 21.3.6 21.8.2.8 48.4 1.2 153.3 1.4l153 .2V653H195.9l.2 20.7zM495 675v14H204v-28h291v14z"/>
</svg>